<svg width="88" height="100" viewBox="0 0 88 100" fill="none" xmlns="http://www.w3.org/2000/svg">
<path d="M87.0934 27.6513C86.9458 26.9318 86.3897 26.3632 85.6734 26.1967L69.8516 22.5303C68.375 10.4346 57.9916 1 45.5221 1C33.3447 1.12567 23.2409 10.2618 21.5412 21.9962L2.43951 26.6365C1.72319 26.8093 1.17653 27.3843 1.03516 28.1069C0.893778 28.8295 1.18596 29.5678 1.78289 29.9982L5.71005 32.832C7.04215 33.7934 7.94696 35.2103 8.25485 36.822L8.53132 38.2641H3.84072C2.80081 38.2641 1.95568 39.1092 1.95568 40.1491V65.5092C1.95568 66.0872 2.21959 66.6339 2.67514 66.9921C3.0113 67.256 3.42287 67.3942 3.84072 67.3942C3.98838 67.3942 4.13918 67.3753 4.28685 67.3408C6.52376 66.7973 8.76381 66.304 11.0101 65.8516V77.6896C11.0101 78.7296 11.8553 79.5747 12.8952 79.5747C13.9351 79.5747 14.7802 78.7296 14.7802 77.6896C14.7802 77.3912 15.2452 76.7314 16.8318 75.9617C20.7778 85.1167 27.6425 92.2516 36.2508 95.808L43.6182 98.8555C43.8475 98.9497 44.0926 99 44.3376 99C44.3722 99 44.4036 99 44.4382 98.9969C44.4664 98.9969 44.4916 99 44.5198 99C44.7712 99 45.0225 98.9497 45.2581 98.8492L52.591 95.7263C61.0202 92.1353 67.7309 85.1073 71.6141 76.1219C72.9525 76.8257 73.3546 77.4163 73.3546 77.6928C73.3546 78.7327 74.1998 79.5778 75.2397 79.5778C76.2796 79.5778 77.1247 78.7327 77.1247 77.6928V65.861C79.3711 66.3134 81.6111 66.8036 83.8512 67.3471C83.9988 67.3816 84.1465 67.4005 84.2942 67.4005C84.712 67.4005 85.1236 67.2622 85.4597 66.9983C85.9153 66.6402 86.1792 66.0935 86.1792 65.5154V40.1554C86.1792 39.6559 85.9813 39.1752 85.6263 38.8233C85.2744 38.4714 84.7937 38.2703 84.2942 38.2703H79.6381L79.968 36.4544C80.2602 34.8396 81.1493 33.4132 82.472 32.4362L86.3677 29.5615C86.9583 29.1153 87.2411 28.3739 87.0934 27.6513Z" fill="white" stroke="black" stroke-width="0.25"/>
<path d="M44.0518 25.0905L43.9607 25.0811C41.2902 25.3858 38.6041 25.8633 35.9776 26.498L15.1667 31.5373L21.6387 65.2229C23.7437 76.1813 30.3193 84.9247 39.2261 88.6068L44.2969 90.7024L44.3911 90.6615H44.4005L44.4948 90.7024L49.5404 88.5534C58.4064 84.7771 64.8909 75.9677 66.8796 64.9873L72.9997 31.2357L52.1386 26.4163C49.5059 25.8068 46.8165 25.3607 44.1398 25.0842L44.0518 25.0905Z" fill="#F41E47"/>
<path d="M44.5075 25.1216C44.385 25.1059 44.2624 25.0902 44.1431 25.0776L44.052 25.0902L43.9608 25.0808C41.8433 25.3195 39.7195 25.6714 37.624 26.1238L44.0111 53.881C44.1996 53.8402 44.385 53.8182 44.5892 53.8182L44.5075 25.1216ZM52.1388 26.4129C51.878 26.3532 51.6204 26.2935 51.3565 26.2401L45.1704 53.8779C45.3432 53.9187 45.5097 53.9753 45.6699 54.0507L58.2117 27.8172L52.1388 26.4129ZM30.7499 27.7638L23.1752 29.5954L43.0497 54.3554C43.2005 54.236 43.3576 54.1355 43.521 54.057L30.7499 27.7638ZM65.7896 29.5672L46.1443 54.3491C46.2983 54.4717 46.4397 54.6099 46.5653 54.767L72.5286 33.8713L73.003 31.2354L65.7896 29.5672ZM15.4905 33.2116L17.4289 43.3028L42.3334 55.2477C42.412 55.0812 42.5156 54.9209 42.6319 54.7733L15.4905 33.2116ZM46.8575 55.2288C46.9361 55.3859 46.9958 55.5556 47.0335 55.7284L69.5031 50.5257L70.7567 43.5919L46.8575 55.2288ZM18.8113 50.4911L19.9329 56.341L42.1041 56.3159C42.1041 56.1116 42.1229 55.9231 42.1669 55.7346L18.8113 50.4911ZM47.1026 56.3159C47.1026 56.5201 47.0774 56.7117 47.0397 56.8939L67.5081 61.5437L68.4632 56.2656L47.1026 56.3159ZM42.1669 56.8939L20.9759 61.7605L21.642 65.2258C21.7708 65.895 21.9185 66.5579 22.0818 67.2114L42.3397 57.3935C42.2643 57.2364 42.2015 57.0667 42.1669 56.8939ZM46.8607 57.3935C46.7821 57.5537 46.6847 57.7108 46.5685 57.8585L64.7402 72.3701C65.4597 70.617 66.0472 68.7728 66.4933 66.8532L46.8607 57.3935ZM42.6413 57.8679L23.9606 72.8319C24.8183 74.8301 25.8456 76.7026 27.0206 78.4274L43.0592 58.2826C42.9021 58.1601 42.7638 58.0187 42.6413 57.8679ZM46.1506 58.2794C45.9998 58.3988 45.8365 58.5025 45.6637 58.5873L57.5645 83.1777C59.1668 81.6319 60.6057 79.8694 61.8593 77.931L46.1506 58.2794ZM43.5241 58.5779L31.4913 83.6269C33.301 85.2983 35.3022 86.7027 37.4606 87.7929L44.03 58.7538C43.8572 58.7161 43.6844 58.6565 43.5241 58.5779ZM45.1798 58.7538C44.9976 58.7947 44.806 58.8167 44.6018 58.8167L44.6363 90.6424L49.5406 88.5532C50.2914 88.2358 51.0235 87.8777 51.7398 87.4881L45.1798 58.7538Z" fill="#CC1B46"/>
<path d="M72.9997 31.2355L52.1386 28.3922C49.5027 27.7859 46.8134 27.3366 44.1398 27.0601L44.0487 27.0727L43.9576 27.0664C41.2871 27.368 38.6041 27.8456 35.9776 28.4833L15.1667 31.5434L35.9776 26.504C38.6041 25.8663 41.2871 25.3919 43.9576 25.0871L44.0487 25.0965L44.1398 25.084C46.8134 25.3636 49.5059 25.8129 52.1386 26.4161L72.9997 31.2355Z" fill="white"/>
<path d="M44.0205 19.1588L43.9231 19.1494L43.6184 19.184C40.5961 19.5139 37.558 20.0448 34.5891 20.7674L2.88586 28.4678L6.81303 31.3016C8.52841 32.5395 9.70656 34.3868 10.1056 36.4666L15.8455 66.3413C18.3275 79.257 26.2226 89.6216 36.9705 94.064L44.3379 97.1115L44.429 97.0738L44.5201 97.1115L51.8529 93.9886C62.5536 89.4331 70.3388 78.9868 72.6857 66.046L78.1115 36.1148C78.4885 34.0318 79.6478 32.1719 81.3506 30.9152L85.2463 28.0405L53.4646 20.6732C50.4862 19.9851 47.4419 19.4856 44.4164 19.1871L44.1117 19.1557L44.0205 19.1588ZM44.3913 90.6646L44.297 90.7055L39.2263 88.6099C30.3195 84.9278 23.747 76.1844 21.6389 65.226L15.1669 31.5404L35.9777 26.5011C38.6042 25.8633 41.2904 25.3889 43.9608 25.0841L44.052 25.0936L44.1431 25.0841C46.8167 25.3606 49.506 25.8099 52.1419 26.4162L73.003 31.2356L66.8829 64.9873C64.8911 75.9676 58.4097 84.7802 49.5437 88.5534L44.4981 90.7023L44.4038 90.6615L44.3913 90.6646Z" fill="#1E2125"/>
<path d="M75.2396 77.6833C75.2396 67.9376 12.8951 67.9376 12.8951 77.6833V56.3384H75.2396V77.6833Z" fill="#1E2125"/>
<path d="M44.0677 76.2095L45.7296 79.5774L49.4463 80.1178L46.757 82.7411L47.3916 86.4421L44.0677 84.6953L40.7437 86.4421L41.3783 82.7411L38.689 80.1178L42.4057 79.5774L44.0677 76.2095Z" fill="white"/>
<path d="M36.5651 72.251L37.4447 74.0323L39.4083 74.3182L37.9883 75.7037L38.3244 77.661L36.5651 76.7374L34.8057 77.661L35.1419 75.7037L33.7218 74.3182L35.6854 74.0323L36.5651 72.251Z" fill="white"/>
<path d="M51.5699 72.251L50.6902 74.0323L48.7266 74.3182L50.1467 75.7037L49.8105 77.661L51.5699 76.7374L53.3293 77.661L52.9931 75.7037L54.4132 74.3182L52.4496 74.0323L51.5699 72.251Z" fill="white"/>
<path d="M29.7099 37.1955V38.4741C27.0708 35.213 25.3994 31.1382 25.1481 26.6895C25.1261 26.2937 25.1135 25.8946 25.1135 25.4925C25.1135 25.3166 25.1167 25.1469 25.1198 24.9741L25.7167 25.6967L26.3419 27.6006L29.5119 37.2646L29.7099 37.1955Z" fill="white"/>
<path d="M66.2106 25.2725C66.2169 25.6778 66.2075 26.0736 66.1886 26.4695C65.9844 30.9213 64.357 35.0119 61.7493 38.3013L61.7336 37.0226L61.9347 37.0886L65.001 27.3932L65.6074 25.4799L66.1949 24.751C66.2075 24.9269 66.2106 25.0997 66.2106 25.2725Z" fill="white"/>
<path d="M40.8382 30.8996L39.6035 32.7438L36.5403 37.3181L36.0533 38.0439L35.5601 37.9182L30.3102 36.5829L27.6555 28.4899L26.7664 25.7785L30.9386 20.5664L38.2777 23.017L40.8382 30.8996Z" fill="white"/>
<path d="M64.5611 25.5805L63.7034 28.3012L61.1335 36.4226L55.403 37.9432L51.7963 32.6776L50.5427 30.8491L52.7451 23.8274L53.0216 22.9383L53.7661 22.6838L60.3355 20.4092L64.5611 25.5805Z" fill="white"/>
<path d="M31.2244 19.6396L38.5477 22.087L45.2962 17.1828V8.56499L38.9907 7.08838L31.4946 12.8126L31.2244 19.6396Z" fill="white"/>
<path d="M60.0404 19.4852L55.001 21.2289L52.7421 22.0112L45.9434 17.1823L45.8523 8.56142L52.142 7.02197L59.6979 12.6645L59.8047 14.7915L60.0404 19.4852Z" fill="white"/>
<path d="M38.447 6.37184L38.6607 6.08594C35.0226 7.42431 31.8651 9.75862 29.512 12.7558L30.6713 12.4102L38.447 6.37184Z" fill="white"/>
<path d="M61.6773 12.583L61.3035 12.4762L60.5149 12.2531L52.6826 6.29957L52.4626 6.01367C55.9877 7.27036 59.0791 9.46015 61.4291 12.2814C61.5171 12.382 61.5957 12.4825 61.6773 12.583Z" fill="white"/>
<path d="M54.5483 38.4142L50.3133 44.4087L45.7641 44.4149L41.2117 44.4589L36.9138 38.5085L38.5978 35.992L40.6996 32.8471L41.6201 31.471H45.695L49.7666 31.4302L50.7029 32.7937L54.5483 38.4142Z" fill="white"/>
<path d="M51.1022 45.3984C49.4025 45.8697 47.618 46.1368 45.7707 46.1556C43.9233 46.1556 42.1388 45.9105 40.4329 45.4519L40.6057 45.3576L40.6088 45.4299L45.7644 45.3827L50.9231 45.3765V45.3042L51.1022 45.3984Z" fill="white"/>
<path d="M45.5443 2.88477C33.1878 3.01358 23.172 13.1048 23.172 25.4927C23.172 37.959 33.3135 48.1006 45.7799 48.1006C58.2463 47.9686 68.281 37.7234 68.149 25.257C68.0202 12.8692 57.9007 2.88162 45.5443 2.88477ZM45.2961 8.56501V17.1828L38.5476 22.0839L31.2211 19.6365L31.4944 12.8095L38.9906 7.08526L45.2961 8.56501ZM52.1419 7.01928L59.6978 12.665L60.0433 19.4888L52.742 22.0116L45.9433 17.1796L45.8521 8.56187L52.1419 7.01928ZM38.6607 6.08619L38.4471 6.37209L30.6744 12.4105L29.5151 12.7561C31.8652 9.75887 35.0226 7.42457 38.6607 6.08619ZM61.677 12.5864L60.5115 12.2534L52.676 6.29669L52.4592 6.01079C56.113 7.31461 59.2956 9.61435 61.677 12.5864ZM29.7099 38.4712C26.8353 34.921 25.1104 30.4032 25.1104 25.4895C25.1104 25.3167 25.1136 25.1439 25.1167 24.9711L25.7137 25.6906L29.5057 37.2584L29.7099 38.4712ZM61.9378 37.0919L65.6105 25.4832L66.2011 24.7575C66.2074 24.9303 66.2106 25.1031 66.2137 25.2759C66.264 30.1895 64.5894 34.7262 61.7524 38.3046L61.9378 37.0919ZM30.3069 36.583L26.763 25.7786L30.9352 20.5633L38.2743 23.0138L40.8348 30.8964L36.0531 38.0407L30.3069 36.583ZM55.3999 37.9433L50.5427 30.8493L53.0216 22.9416L60.3355 20.4125L64.5612 25.5838L61.1335 36.4227L55.3999 37.9433ZM45.7705 46.159C43.9263 46.159 42.1355 45.9139 40.4327 45.4552L40.6086 45.4301L45.7673 45.3798L50.926 45.3735L51.102 45.3955C49.4023 45.8762 47.6178 46.1401 45.7705 46.159ZM45.761 44.4122L41.2118 44.4561L36.9108 38.5057L41.6202 31.4714H45.6951L49.7699 31.4274L54.5516 38.4115L50.3134 44.4059L45.761 44.4122Z" fill="#1E2125"/>
<path d="M45.6292 20.2554L39.3269 22.5488L45.6229 17.9619L51.9661 22.4829L45.6386 20.2554H45.6292Z" fill="#F41E47"/>
<path d="M45.5727 8.11874L39.1824 6.59185L45.5664 7.06626L51.9441 6.52588L45.5727 8.11874Z" fill="#F41E47"/>
<path d="M29.2514 13.5384L30.7626 13.064L30.4233 19.715L26.7161 24.6884L29.4902 19.2186L29.9835 13.796L29.2514 13.5384Z" fill="#F41E47"/>
<path d="M61.9472 13.3654L60.4329 12.9067L60.8381 19.5578L64.6019 24.4903L61.7712 19.052L61.2183 13.6325L61.9472 13.3654Z" fill="#F41E47"/>
<path d="M30.3103 38.7697V37.3496L36.399 38.7697L40.0528 44.1829L35.7675 39.3572L30.6276 37.9434L30.3103 38.7697Z" fill="#F41E47"/>
<path d="M61.1525 38.609L61.1368 37.189L55.0638 38.6719L51.4666 44.1228L55.7016 39.2531L60.8289 37.7859L61.1525 38.609Z" fill="#F41E47"/>
<path d="M35.5598 37.9179C35.8897 37.7232 36.2164 37.5221 36.54 37.3179L36.0531 38.0436L35.5598 37.9179Z" fill="#B3BFC4"/>
<path d="M50.9262 45.3042L51.1022 45.3984C49.4025 45.8697 47.618 46.1368 45.7707 46.1556C43.9233 46.1556 42.1388 45.9105 40.4329 45.4519L40.6057 45.3576L40.6088 45.4299L45.7644 45.3827L50.9231 45.3765V45.3042H50.9262Z" fill="#B3BFC4"/>
<path d="M50.7029 32.7937L54.5483 38.4142L50.3133 44.4087L45.7641 44.4149L41.2148 44.4589L36.9138 38.5085L38.5978 35.9951C40.709 34.5908 42.7449 33.0859 44.7053 31.4742H45.695L49.7698 31.4302L50.7029 32.7937Z" fill="#B3BFC4"/>
<path d="M60.0401 19.4857L55.0007 21.2294C56.6847 19.1967 58.287 17.054 59.8076 14.792L60.0401 19.4857Z" fill="#B3BFC4"/>
<path d="M61.6768 12.5829L61.303 12.476C61.3438 12.4101 61.3847 12.3472 61.4255 12.2812C61.5166 12.3818 61.5952 12.4823 61.6768 12.5829Z" fill="#B3BFC4"/>
<path d="M63.7034 28.3014L61.1335 36.4228L55.403 37.9402L51.7963 32.6747L50.5427 30.8462L52.7451 23.8244C53.0875 23.4506 53.43 23.0673 53.7661 22.6809L60.3355 20.4062L64.5611 25.5775L63.7034 28.3014Z" fill="#B3BFC4"/>
<path d="M66.2106 25.2725C66.2169 25.6778 66.2075 26.0736 66.1886 26.4695C65.9844 30.9213 64.357 35.0119 61.7493 38.3013L61.7336 37.0226L61.9347 37.0886L65.001 27.3932L65.6074 25.4799L66.1949 24.751C66.2075 24.9269 66.2106 25.0997 66.2106 25.2725Z" fill="#B3BFC4"/>
<path d="M84.2944 65.506C57.4106 58.9995 30.5928 59.0027 3.84094 65.506V40.146H84.2944V65.506Z" fill="#1E2125"/>
<path d="M16.7094 68.7548C16.4361 68.6197 16.257 68.3527 16.1722 67.9474C16.1407 67.7903 16.1219 67.7086 16.0905 67.5515C16.5555 67.4541 16.7879 67.407 17.2529 67.3159C17.2938 67.517 17.3126 67.6175 17.3535 67.8217C17.3943 68.0228 17.5074 68.1045 17.6928 68.0699C17.7964 68.0479 17.8656 68.0133 17.9001 67.9631C17.9315 67.9128 17.941 67.8374 17.919 67.7369C17.8938 67.6049 17.8498 67.5012 17.787 67.4227C17.7242 67.3442 17.6519 67.2845 17.5702 67.2405C17.4885 67.1965 17.3409 67.1305 17.1335 67.0457C16.901 66.9452 16.7848 66.898 16.5523 66.7975C16.103 66.6121 15.8423 66.3639 15.7763 66.0435C15.704 65.6979 15.7669 65.4089 15.9648 65.1826C16.1627 64.9533 16.4895 64.7931 16.9419 64.7051C17.4854 64.5983 17.8938 64.6203 18.1672 64.7711C18.4405 64.9187 18.6164 65.2015 18.6918 65.6162C18.2049 65.7073 17.9598 65.7513 17.4728 65.8487C17.4477 65.7387 17.4351 65.6822 17.4131 65.5722C17.4037 65.5188 17.3723 65.4811 17.322 65.456C17.2718 65.4308 17.2058 65.4277 17.1272 65.4434C17.033 65.4623 16.967 65.4937 16.9293 65.5377C16.8885 65.5816 16.8759 65.6319 16.8885 65.6948C16.9136 65.8267 17.0518 65.943 17.3032 66.0403C17.6174 66.166 17.7713 66.232 18.0855 66.3608C18.2677 66.4362 18.4216 66.5147 18.5442 66.5901C18.6667 66.6655 18.7735 66.7629 18.8646 66.8823C18.9526 67.0017 19.0154 67.1494 19.0468 67.3316C19.1222 67.7337 19.072 68.0573 18.8992 68.3024C18.7264 68.5474 18.3965 68.7171 17.9127 68.8114C17.3817 68.9025 16.9827 68.8899 16.7094 68.7548Z" fill="#F41E47"/>
<path d="M20.6149 67.9884C20.3321 67.8313 20.1593 67.5706 20.0965 67.2061C19.9583 66.4301 19.8892 66.0437 19.7541 65.2677C19.6912 64.9158 19.7698 64.6299 19.9928 64.4068C20.2128 64.1838 20.5709 64.0298 21.0579 63.9513C21.5448 63.8696 21.9313 63.901 22.214 64.0393C22.4968 64.1775 22.6633 64.4257 22.7167 64.7776C22.8361 65.5567 22.8989 65.9463 23.0183 66.7223C23.0749 67.0899 22.9963 67.3946 22.7796 67.6302C22.5628 67.869 22.2203 68.0261 21.7459 68.1047C21.2715 68.1863 20.8945 68.1455 20.6149 67.9884ZM21.8182 67.225C21.8433 67.1558 21.8496 67.0647 21.8307 66.9485C21.6988 66.1505 21.636 65.7515 21.504 64.9535C21.4883 64.8655 21.46 64.7964 21.416 64.7461C21.3721 64.6959 21.2967 64.6802 21.1898 64.699C20.9888 64.7336 20.9071 64.853 20.9416 65.0572C21.0767 65.852 21.1427 66.251 21.2747 67.0459C21.2935 67.1621 21.3312 67.247 21.3815 67.3004C21.4317 67.3538 21.5134 67.3726 21.6234 67.3538C21.7239 67.3381 21.7899 67.2941 21.8182 67.225Z" fill="#F41E47"/>
<path d="M24.6486 67.3698C24.3627 67.219 24.1962 66.9802 24.1491 66.6535C24.0391 65.8995 23.9826 65.5224 23.8726 64.7684C23.8129 64.3632 23.8883 64.0396 24.0957 63.7976C24.3062 63.5557 24.6675 63.3986 25.1796 63.3295C25.6257 63.2698 25.9996 63.3044 26.2917 63.4363C26.5871 63.5683 26.7504 63.7882 26.7913 64.1024C26.8258 64.3851 26.8447 64.5265 26.8792 64.8093C26.4017 64.869 26.1629 64.9004 25.6854 64.9632C25.654 64.7213 25.6383 64.5988 25.6037 64.3569C25.588 64.2406 25.5566 64.1621 25.5094 64.1212C25.4623 64.0835 25.3869 64.071 25.2832 64.0835C25.1764 64.0992 25.1042 64.1338 25.0727 64.1904C25.0413 64.2469 25.0319 64.3255 25.0445 64.4229C25.1576 65.246 25.2141 65.6575 25.3272 66.4775C25.3429 66.5844 25.3775 66.6629 25.4278 66.7037C25.4812 66.7477 25.5534 66.7634 25.6445 66.7509C25.8268 66.7257 25.9053 66.6095 25.8802 66.4021C25.8393 66.1068 25.8205 65.9592 25.7828 65.6638C26.2635 65.601 26.5022 65.5696 26.9861 65.5099C27.0238 65.8209 27.0426 65.9749 27.0834 66.2827C27.1683 66.9708 26.7159 67.3729 25.7231 67.508C25.2895 67.5646 24.9314 67.5206 24.6486 67.3698Z" fill="#F41E47"/>
<path d="M28.5917 66.8606C28.3121 66.7036 28.1518 66.4585 28.111 66.1318C28.023 65.3746 27.979 64.9944 27.8911 64.2373C27.8439 63.8289 27.9256 63.5084 28.1424 63.2728C28.3592 63.0372 28.7236 62.8926 29.2389 62.8361C29.6881 62.789 30.0589 62.8361 30.3479 62.9743C30.6369 63.1126 30.7972 63.3419 30.8254 63.6529C30.8537 63.9357 30.8663 64.0771 30.8946 64.363C30.417 64.4101 30.1751 64.4321 29.6976 64.4823C29.6724 64.2404 29.6599 64.1179 29.6347 63.8729C29.6222 63.7535 29.5939 63.6749 29.5468 63.6341C29.4996 63.5932 29.4242 63.5807 29.3206 63.5901C29.2137 63.6027 29.1415 63.6341 29.1069 63.6906C29.0724 63.7472 29.0598 63.8226 29.0724 63.9231C29.1603 64.7494 29.2075 65.161 29.2954 65.9872C29.308 66.0972 29.3394 66.1726 29.3897 66.2166C29.4399 66.2606 29.5122 66.2794 29.6065 66.27C29.7918 66.2511 29.8735 66.138 29.8515 65.9307C29.8201 65.6354 29.8044 65.4846 29.773 65.1892C30.2536 65.139 30.4956 65.1138 30.9794 65.0699C31.0077 65.3809 31.0234 65.5348 31.0548 65.8459C31.1208 66.537 30.6558 66.9266 29.663 67.0303C29.2263 67.0774 28.8713 67.0209 28.5917 66.8606Z" fill="#F41E47"/>
<path d="M32.2266 66.7445C32.082 65.0983 32.0098 64.272 31.8684 62.6257C32.8455 62.5409 33.3325 62.5032 34.3095 62.4341C34.3315 62.7514 34.3441 62.9116 34.3661 63.2321C33.8885 63.2666 33.6498 63.2824 33.1722 63.3201C33.1974 63.6405 33.2099 63.8007 33.2351 64.1212C33.6906 64.0866 33.9168 64.0678 34.3724 64.0364C34.3944 64.3474 34.4038 64.5045 34.4258 64.8155C33.9734 64.8469 33.7472 64.8626 33.2948 64.9003C33.323 65.2774 33.3387 65.469 33.3702 65.846C33.8697 65.8083 34.1179 65.7895 34.6174 65.7549C34.6394 66.0754 34.652 66.2356 34.674 66.556C33.6906 66.6189 33.2036 66.6597 32.2266 66.7445Z" fill="#F41E47"/>
<path d="M35.5002 62.355C36.2511 62.3079 36.625 62.289 37.3759 62.2545C37.6743 62.2388 37.9068 62.2765 38.0733 62.3613C38.2398 62.4461 38.3561 62.5686 38.4189 62.732C38.4817 62.8954 38.5194 63.1059 38.5289 63.3604C38.5383 63.596 38.5006 63.7782 38.4189 63.9133C38.3341 64.0484 38.1864 64.1458 37.9665 64.2086C38.1487 64.2275 38.2838 64.284 38.3686 64.3783C38.4535 64.4725 38.5006 64.6076 38.5069 64.7773C38.5257 65.4025 38.5352 65.7167 38.5572 66.3419C38.0953 66.3607 37.8628 66.3701 37.3979 66.3921C37.3664 65.7449 37.3507 65.4213 37.3193 64.7773C37.313 64.661 37.2785 64.5888 37.2093 64.5605C37.1434 64.5322 37.024 64.5228 36.8512 64.5291C36.892 65.2831 36.9109 65.6601 36.9486 66.4141C36.4679 66.4393 36.2291 66.4518 35.7484 66.4832C35.651 64.8307 35.6008 64.0044 35.5002 62.355ZM37.1088 63.7971C37.2785 63.7876 37.357 63.6588 37.3444 63.4106C37.3382 63.3007 37.3287 63.219 37.3099 63.1656C37.2942 63.1122 37.2659 63.0745 37.2282 63.0556C37.1905 63.0368 37.1339 63.0273 37.0648 63.0336C36.9517 63.0399 36.8952 63.043 36.7821 63.0493C36.7978 63.3541 36.8072 63.508 36.8229 63.8128C36.936 63.8065 36.9957 63.8033 37.1088 63.7971Z" fill="#F41E47"/>
<path d="M42.3713 65.9933C42.1074 65.808 41.9755 65.5503 41.9692 65.2204C41.9566 64.457 41.9503 64.0769 41.9409 63.3134C41.9346 62.9019 42.0509 62.5908 42.2896 62.3803C42.5284 62.1698 42.9054 62.0599 43.4238 62.0567C43.8731 62.0536 44.2375 62.1384 44.5109 62.3049C44.7842 62.4714 44.9193 62.7133 44.9193 63.0275C44.9161 63.3134 44.9161 63.4548 44.9161 63.7407C44.4354 63.7375 44.1967 63.7375 43.716 63.7375C43.716 63.4925 43.716 63.37 43.7129 63.1249C43.7129 63.0055 43.6909 62.9238 43.65 62.8799C43.606 62.8359 43.5338 62.8139 43.4301 62.8139C43.3201 62.8139 43.2479 62.839 43.207 62.8924C43.1662 62.9427 43.1473 63.0181 43.1473 63.1186C43.1536 63.948 43.1568 64.3627 43.1599 65.1922C43.1599 65.3021 43.185 65.3807 43.2322 65.4309C43.2793 65.4812 43.3484 65.5063 43.4395 65.5032C43.6249 65.5032 43.716 65.3964 43.716 65.189C43.716 64.8906 43.716 64.7429 43.7129 64.4444C44.1967 64.4444 44.4386 64.4444 44.9224 64.4476C44.9193 64.7586 44.9193 64.9157 44.9161 65.2267C44.913 65.9211 44.4103 66.2604 43.4144 66.2666C42.9808 66.2698 42.6352 66.1787 42.3713 65.9933Z" fill="#F41E47"/>
<path d="M45.9463 65.186C45.9526 64.6205 45.9588 64.3377 45.9651 63.7722C45.9683 63.4392 46.1097 63.1753 46.3893 62.9805C46.6689 62.7888 47.049 62.6946 47.5297 62.7072C48.0104 62.7197 48.3874 62.8297 48.6545 63.0371C48.9246 63.2444 49.0503 63.5146 49.0377 63.8476C49.0189 64.4131 49.0063 64.6959 48.9875 65.2614C48.9623 65.9903 48.444 66.3327 47.4386 66.3076C46.4332 66.2825 45.9337 65.9149 45.9463 65.186ZM47.6742 65.5913C47.7214 65.5442 47.7465 65.4782 47.7496 65.3965C47.7685 64.7084 47.7779 64.3629 47.7968 63.6748C47.803 63.4706 47.7088 63.3638 47.5171 63.3607C47.3255 63.3544 47.225 63.458 47.2218 63.6623C47.2061 64.3503 47.1998 64.6959 47.1841 65.3839C47.181 65.4688 47.203 65.5347 47.2501 65.5818C47.2972 65.629 47.3663 65.6572 47.4637 65.6604C47.5548 65.6604 47.6271 65.6384 47.6742 65.5913Z" fill="#F41E47"/>
<path d="M50.2131 66.1317C50.0749 65.9432 50.0152 65.6824 50.0278 65.3463C50.0403 65.0698 50.1 64.8624 50.2131 64.7179C50.3231 64.5765 50.4739 64.4729 50.6655 64.4132C50.854 64.3535 51.1431 64.2906 51.5295 64.2278C51.6646 64.2058 51.7337 64.1933 51.8688 64.1681C51.8688 64.165 51.8688 64.1618 51.8688 64.1587C51.8782 64.0173 51.8814 63.9482 51.8877 63.8068C51.894 63.7126 51.8688 63.6403 51.8185 63.5869C51.7683 63.5335 51.7054 63.5052 51.63 63.5021C51.5641 63.4989 51.5044 63.5178 51.4541 63.5555C51.4038 63.5932 51.3756 63.6497 51.3724 63.7189C51.3693 63.8037 51.3661 63.8445 51.3598 63.9294C50.8823 63.9042 50.6435 63.8917 50.166 63.8728C50.1691 63.8257 50.1691 63.8037 50.1723 63.7566C50.188 63.411 50.3168 63.1691 50.5619 63.0308C50.8069 62.8957 51.1996 62.8392 51.7369 62.8675C52.1673 62.8894 52.5097 62.9868 52.7705 63.1565C53.0281 63.3261 53.1475 63.5492 53.1318 63.8288C53.0627 64.9001 53.0281 65.4374 52.9559 66.5087C52.4752 66.4773 52.2364 66.4616 51.7557 66.4365C51.7651 66.2699 51.7714 66.1851 51.7808 66.0186C51.7117 66.16 51.6112 66.2668 51.4761 66.3391C51.341 66.4113 51.1839 66.4427 51.0048 66.4333C50.6153 66.4239 50.3514 66.3202 50.2131 66.1317ZM51.718 65.7453C51.762 65.695 51.784 65.6322 51.7871 65.5536C51.8091 65.1609 51.8217 64.9661 51.8437 64.5734C51.6583 64.6111 51.5232 64.6645 51.4321 64.7336C51.341 64.8028 51.2939 64.9033 51.2876 65.0352C51.2782 65.2175 51.2719 65.3054 51.2625 65.4877C51.253 65.695 51.3347 65.805 51.5169 65.8144C51.608 65.8207 51.674 65.7987 51.718 65.7453Z" fill="#F41E47"/>
<path d="M54.4513 66.3674C54.2219 66.1538 54.1214 65.8459 54.1528 65.4438C54.1842 65.0102 54.2 64.7934 54.2314 64.3599C54.2534 64.0551 54.3193 63.8132 54.4293 63.6279C54.5393 63.4456 54.7121 63.3137 54.9477 63.2351C55.1833 63.1566 55.5038 63.1346 55.9091 63.1692C56.352 63.2069 56.7039 63.3168 56.9678 63.499C57.2317 63.6813 57.348 63.9138 57.3197 64.1934C57.2977 64.407 57.2883 64.5138 57.2694 64.7306C56.773 64.6835 56.5248 64.6615 56.0253 64.6175C56.041 64.4196 56.0504 64.3222 56.0693 64.1242C56.0787 64.03 56.0661 63.9577 56.0316 63.9075C55.997 63.8541 55.9279 63.8226 55.8211 63.8132C55.62 63.7975 55.5101 63.8855 55.4943 64.0803C55.4378 64.762 55.4095 65.1013 55.353 65.7831C55.3467 65.8616 55.3655 65.9339 55.4095 65.9936C55.4535 66.0533 55.5226 66.0878 55.62 66.0973C55.7174 66.1067 55.7928 66.0847 55.8462 66.0344C55.8996 65.9841 55.9279 65.915 55.9311 65.8302C55.9499 65.5946 55.9562 65.4752 55.975 65.2396C56.4714 65.2835 56.7196 65.3055 57.2129 65.3527C57.1909 65.5977 57.1783 65.7202 57.1532 65.9653C57.1249 66.2543 56.9678 66.4648 56.6851 66.6062C56.4023 66.7444 56.0473 66.7979 55.62 66.7602C55.0671 66.7099 54.6775 66.5811 54.4513 66.3674Z" fill="#F41E47"/>
<path d="M58.6043 62.8237C59.1132 62.8771 59.3709 62.9054 59.8798 62.962C59.8358 63.3515 59.8138 63.5463 59.7699 63.9391C59.9301 63.6971 60.1971 63.5997 60.5679 63.6437C60.9166 63.6846 61.1679 63.7914 61.3282 63.9642C61.4884 64.137 61.5512 64.3538 61.5167 64.6145C61.3816 65.6921 61.3124 66.2294 61.1774 67.307C60.6967 67.2473 60.4579 67.2159 59.9772 67.1593C60.1029 66.1006 60.1626 65.5727 60.2882 64.514C60.2977 64.4386 60.2788 64.3726 60.2317 64.3192C60.1846 64.2658 60.1123 64.2312 60.0149 64.2218C59.9301 64.2124 59.861 64.2281 59.8076 64.2721C59.7542 64.3161 59.7227 64.3726 59.7133 64.4417C59.5939 65.5005 59.5342 66.0314 59.4148 67.0902C58.9216 67.0337 58.6734 67.0085 58.177 66.9551C58.3435 65.3057 58.4315 64.4763 58.6043 62.8237Z" fill="#F41E47"/>
<path d="M62.8237 63.7282C62.8551 63.4957 62.8708 63.3795 62.9023 63.147C63.3987 63.2129 63.6437 63.2475 64.1401 63.3198C64.1056 63.5523 64.0898 63.6685 64.0553 63.901C63.562 63.8287 63.317 63.7942 62.8237 63.7282ZM62.321 67.4543C62.5095 66.0562 62.6038 65.3588 62.7923 63.9607C63.2856 64.0267 63.5306 64.0612 64.0239 64.1335C63.8228 65.5284 63.7223 66.2259 63.5212 67.6208C63.0405 67.5517 62.7986 67.5203 62.321 67.4543Z" fill="#F41E47"/>
<path d="M65.2084 64.3096C65.6986 64.385 65.9468 64.4227 66.4369 64.5012C66.4086 64.6772 66.3929 64.7651 66.3646 64.9442C66.44 64.8091 66.5468 64.7086 66.6882 64.6394C66.8296 64.5703 67.0055 64.5546 67.216 64.5892C67.5616 64.6457 67.8067 64.762 67.9449 64.9348C68.0863 65.1076 68.1334 65.3275 68.0863 65.5914C67.8978 66.6627 67.8035 67.2 67.6181 68.2713C67.15 68.1896 66.9144 68.1488 66.4431 68.0702C66.6159 67.0303 66.7008 66.5119 66.8736 65.472C66.8861 65.3966 66.8736 65.3275 66.839 65.2678C66.8044 65.2081 66.7385 65.1673 66.6474 65.1547C66.5217 65.1327 66.4337 65.161 66.3803 65.2301C66.3269 65.3024 66.2923 65.4029 66.2703 65.5317C66.1133 66.5119 66.0316 66.9989 65.8745 67.9791C65.3969 67.9006 65.1582 67.8629 64.6775 67.7906C64.888 66.402 64.9948 65.7045 65.2084 64.3096Z" fill="#F41E47"/>
<path d="M69.1889 69.0251C68.9941 68.9465 68.8119 68.8366 68.636 68.6889C68.8339 68.5287 68.9344 68.447 69.1324 68.2868C69.4026 68.4627 69.679 68.5758 69.9649 68.6323C70.1503 68.6669 70.298 68.6543 70.4111 68.5915C70.521 68.5287 70.5933 68.425 70.6216 68.2836C70.6373 68.2082 70.6436 68.1705 70.6593 68.0951C70.5179 68.3119 70.2414 68.381 69.833 68.3025C69.4905 68.2365 69.2549 68.1108 69.123 67.9192C68.991 67.7275 68.9502 67.4982 68.9973 67.2311C69.0947 66.7096 69.1418 66.4488 69.236 65.9305C69.2926 65.6257 69.412 65.4026 69.5911 65.2707C69.7733 65.1356 70.0529 65.1042 70.4299 65.1764C70.6498 65.2173 70.8163 65.2895 70.9294 65.3869C71.0425 65.4875 71.1085 65.6069 71.1211 65.7514C71.1525 65.5974 71.1682 65.5189 71.1965 65.365C71.696 65.4623 71.9442 65.5158 72.4438 65.6163C72.205 66.763 72.0887 67.3348 71.85 68.4815C71.7714 68.868 71.5829 69.1193 71.2907 69.2356C70.9986 69.3518 70.5713 69.3549 70.0058 69.245C69.657 69.1727 69.3837 69.1005 69.1889 69.0251ZM70.7818 67.4762C70.8792 66.9829 70.9294 66.7379 71.0268 66.2446C71.0394 66.1755 71.0268 66.1033 70.9829 66.031C70.9389 65.9556 70.876 65.9116 70.7944 65.8959C70.6875 65.8739 70.6121 65.8865 70.565 65.9305C70.5179 65.9744 70.4865 66.0436 70.4676 66.1347C70.3734 66.6279 70.3231 66.8761 70.2288 67.3694C70.21 67.473 70.21 67.561 70.2351 67.6333C70.2603 67.7055 70.3262 67.7527 70.4362 67.7715C70.6184 67.8061 70.7347 67.7087 70.7818 67.4762Z" fill="#F41E47"/>
<path d="M10.4982 43.3476C12.3958 43.3445 13.3415 43.3445 15.2391 43.3413C16.5146 43.3382 17.4415 43.6398 18.0164 44.2273C18.5913 44.8148 18.8804 45.7699 18.8804 47.1051C18.8804 47.3973 18.8804 47.545 18.8804 47.8371C18.8804 49.4143 18.2803 50.3882 17.0896 50.7747C17.8216 50.9098 18.3369 51.2962 18.6353 51.9308C18.9338 52.5655 19.0814 53.4169 19.0814 54.4913C19.0814 56.2444 18.8018 57.5985 18.2457 58.5787C17.6897 59.5589 16.6874 60.1559 15.236 60.3789C13.3415 60.668 12.3958 60.8251 10.5045 61.1581C10.4982 55.2171 10.4982 49.2823 10.4982 43.3476ZM14.6265 49.7819C14.9249 49.763 15.1291 49.6436 15.236 49.4174C15.3459 49.1944 15.3993 48.8833 15.3993 48.4875C15.3993 47.8057 15.3993 47.4664 15.3993 46.7847C15.3993 46.2317 15.148 45.9584 14.6485 45.971C14.3563 45.9772 14.2086 45.9835 13.9164 45.9898C13.9164 47.523 13.9164 48.2896 13.9164 49.8227C14.1992 49.807 14.3406 49.7976 14.6265 49.7819ZM15.6193 56.0685C15.6193 55.2234 15.6193 54.7992 15.6193 53.9541C15.6193 53.442 15.5407 53.0587 15.3868 52.8074C15.2328 52.556 14.9563 52.4461 14.5636 52.4806C14.3029 52.5026 14.1741 52.512 13.9133 52.5372C13.9133 54.5353 13.9133 55.5344 13.9101 57.5357C14.0484 57.5262 14.1175 57.52 14.2557 57.5105C15.1637 57.388 15.6193 56.9105 15.6193 56.0685Z" fill="white"/>
<path d="M20.2311 59.6752C20.2343 54.2275 20.2406 48.7797 20.2437 43.332C23.043 43.3288 24.4442 43.3288 27.2435 43.3257C27.2435 44.529 27.2403 45.1322 27.2403 46.3355C25.8643 46.3606 25.1762 46.3763 23.8001 46.4046C23.8001 47.6424 23.797 48.2613 23.797 49.4992C25.1165 49.4426 25.7763 49.4175 27.0927 49.3672C27.0927 50.5422 27.0895 51.1329 27.0895 52.3079C25.77 52.3801 25.1102 52.4179 23.7939 52.5027C23.7939 53.9636 23.7907 54.6925 23.7907 56.1534C25.2548 56.0246 25.9868 55.9649 27.454 55.8549C27.454 57.0645 27.4508 57.6708 27.4508 58.8804C24.5636 59.1474 23.1184 59.3077 20.2311 59.6752Z" fill="white"/>
<path d="M29.3268 57.8274C28.6231 57.1896 28.2712 56.09 28.2712 54.5412C28.2712 53.9348 28.2712 53.6332 28.2712 53.0268C29.6473 52.9514 30.3353 52.9169 31.7114 52.8572C31.7114 53.6143 31.7114 53.9945 31.7082 54.7517C31.7082 55.5088 31.9847 55.8701 32.5408 55.8387C32.8518 55.823 33.0717 55.7319 33.1911 55.5654C33.3137 55.402 33.3733 55.1318 33.3765 54.7548C33.3765 54.2615 33.3105 53.8563 33.1754 53.5421C33.0403 53.2248 32.8675 52.9609 32.657 52.7535C32.4465 52.543 32.0695 52.2226 31.5292 51.7827C30.9259 51.2832 30.6275 51.0287 30.0243 50.5229C28.8587 49.5647 28.2743 48.4651 28.2775 47.2366C28.2775 45.914 28.6231 44.9023 29.308 44.2112C29.9928 43.52 30.9951 43.1807 32.3114 43.1807C33.8855 43.1807 35.0165 43.542 35.7077 44.252C36.3988 44.9652 36.7444 46.0773 36.7444 47.5948C35.3212 47.6136 34.608 47.6262 33.1848 47.6513C33.1754 47.2366 33.1723 47.0293 33.166 46.6146C33.166 46.4166 33.1032 46.2564 32.9744 46.1402C32.8455 46.0239 32.6665 45.9674 32.434 45.9705C32.1638 45.9737 31.9596 46.0396 31.8245 46.1716C31.6894 46.3035 31.6203 46.4826 31.6203 46.7057C31.6203 47.2021 31.9439 47.711 32.5942 48.2263C33.4079 48.886 33.8132 49.2128 34.6269 49.8663C35.1013 50.2527 35.494 50.6171 35.805 50.9627C36.1161 51.3083 36.3674 51.7199 36.5559 52.1974C36.7444 52.675 36.8387 53.2405 36.8387 53.9002C36.8387 55.3706 36.5214 56.4985 35.8899 57.287C35.2584 58.0787 34.2153 58.5123 32.7639 58.6097C31.1773 58.7134 30.0305 58.4652 29.3268 57.8274Z" fill="white"/>
<path d="M39.5056 58.1483C39.5088 54.1552 39.5088 50.162 39.5119 46.1689C38.6825 46.1752 38.2678 46.1783 37.4352 46.1846C37.4352 45.041 37.4352 44.4661 37.4384 43.3225C40.4984 43.3225 42.0285 43.3225 45.0885 43.3193C45.0885 44.4504 45.0885 45.0159 45.0885 46.15C44.2591 46.15 43.8444 46.15 43.0118 46.1532C43.0118 50.1243 43.0118 54.0986 43.0087 58.0698C41.6075 58.0886 40.9069 58.1043 39.5056 58.1483Z" fill="white"/>
<path d="M46.0627 58.0509C46.0627 53.1404 46.0627 48.2299 46.0627 43.3193C48.862 43.3193 50.26 43.3193 53.0593 43.3193C53.0593 44.4755 53.0593 45.0536 53.0593 46.2097C51.6675 46.2003 50.9732 46.1972 49.5814 46.1909C49.5814 47.1334 49.5814 47.6047 49.5814 48.5472C50.9009 48.5566 51.5607 48.5629 52.8771 48.5786C52.8771 49.719 52.8771 50.2908 52.8771 51.4313C51.5576 51.4062 50.8978 51.3967 49.5814 51.381C49.5814 54.0641 49.5814 55.4024 49.5846 58.0855C48.1771 58.0572 47.4733 58.0509 46.0627 58.0509Z" fill="white"/>
<path d="M55.1454 57.3027C54.4134 56.533 54.0458 55.49 54.0458 54.161C54.0427 51.324 54.0427 49.904 54.0427 47.067C54.0427 45.782 54.4071 44.8175 55.1391 44.164C55.8711 43.5105 56.9425 43.1807 58.3531 43.1807C59.7638 43.1807 60.8351 43.5137 61.5702 44.1892C62.3023 44.8646 62.6699 45.8763 62.673 47.2052C62.6761 50.1459 62.6761 51.6162 62.6793 54.5569C62.6793 55.9455 62.3148 56.9949 61.5828 57.6892C60.8508 58.3866 59.7795 58.6757 58.3657 58.5846C56.9488 58.4966 55.8774 58.0693 55.1454 57.3027ZM58.9909 55.4837C59.0977 55.2543 59.1543 54.9276 59.1543 54.5035C59.1511 51.5345 59.1511 50.0516 59.148 47.0858C59.148 46.756 59.0977 46.4889 58.994 46.2816C58.8935 46.0742 58.6861 45.9705 58.372 45.9642C57.7876 45.958 57.4986 46.335 57.4986 47.0953C57.5017 50.0359 57.5017 51.5063 57.5048 54.4469C57.5048 54.8805 57.5677 55.2103 57.6902 55.4397C57.8127 55.669 58.0358 55.7916 58.3625 55.8073C58.6736 55.8198 58.8841 55.713 58.9909 55.4837Z" fill="white"/>
<path d="M65.0389 57.9627C64.3069 57.127 63.9393 56.0243 63.9362 54.6356C63.933 51.6761 63.933 50.1932 63.9299 47.2337C63.9299 45.8953 64.2943 44.89 65.0263 44.2082C65.7584 43.5265 66.8297 43.1777 68.2403 43.1777C69.651 43.1777 70.7223 43.5296 71.4575 44.2553C72.1895 44.9779 72.5571 46.0618 72.5571 47.4819C72.5602 50.6268 72.5602 52.1976 72.5634 55.3425C72.5634 56.8285 72.1989 57.9344 71.4669 58.6476C70.7349 59.3608 69.6635 59.6184 68.2529 59.4582C66.8423 59.298 65.7709 58.8016 65.0389 57.9627ZM68.8812 56.2034C68.9881 55.9646 69.0446 55.619 69.0446 55.1697C69.0415 52.028 69.0415 50.454 69.0383 47.3123C69.0383 46.9635 68.9881 46.6776 68.8844 46.4577C68.7838 46.2378 68.5765 46.1247 68.2623 46.1184C67.678 46.1058 67.3889 46.5017 67.3889 47.3028C67.3921 50.4037 67.3921 51.9526 67.3952 55.0535C67.3952 55.509 67.458 55.8609 67.5806 56.106C67.7031 56.351 67.9262 56.4892 68.2529 56.5175C68.5639 56.5489 68.7744 56.4421 68.8812 56.2034Z" fill="white"/>
<path d="M75.4725 60.25C75.4694 55.6945 75.4662 51.1422 75.4662 46.5866C74.6368 46.5615 74.2221 46.549 73.3895 46.527C73.3895 45.2514 73.3896 44.6105 73.3864 43.335C76.4465 43.3381 77.9765 43.3412 81.0365 43.3475C81.0365 44.7142 81.0365 45.3991 81.0365 46.7689C80.2071 46.7406 79.7924 46.7249 78.963 46.6966C78.963 51.3966 78.9661 56.0998 78.9661 60.7998C77.5712 60.5674 76.8706 60.4574 75.4725 60.25Z" fill="white"/>
<path d="M10.8878 60.69C10.8878 55.0412 10.8878 49.3923 10.8878 43.7404C12.6283 43.7309 13.4985 43.7278 15.2391 43.7184C16.3952 43.7121 17.2341 43.9729 17.7304 44.4818C18.2363 44.9971 18.4907 45.883 18.4907 47.1177C18.4907 47.4099 18.4907 47.5576 18.4907 47.8497C18.4907 49.2572 17.9975 50.0929 16.9859 50.4197C16.4203 50.6019 16.1376 50.6962 15.5721 50.8847C16.1376 50.9883 16.4235 51.0417 16.989 51.1454C17.6048 51.2585 18.0226 51.5727 18.274 52.1068C18.5504 52.6943 18.6887 53.508 18.6887 54.5291C18.6887 56.213 18.4248 57.5231 17.9064 58.4374C17.4194 59.2951 16.546 59.804 15.2328 59.9988C13.4923 60.2533 12.6251 60.3947 10.8878 60.69ZM13.5205 57.9441L14.2337 57.8907C15.3836 57.7368 16.0056 57.0802 16.0056 56.0245C16.0056 55.1825 16.0056 54.7584 16.0056 53.9164C16.0056 53.3321 15.9145 52.8985 15.7197 52.5906C15.5627 52.3361 15.2328 52.044 14.5573 52.0974C14.1426 52.1319 13.9321 52.1476 13.5174 52.1822C13.5237 54.4851 13.5237 55.6381 13.5205 57.9441ZM13.5237 50.2343C13.9635 50.206 14.1834 50.1903 14.6264 50.1652C15.0725 50.1369 15.4119 49.9233 15.5878 49.5651C15.7229 49.2855 15.7889 48.9274 15.7889 48.4718C15.7889 47.7932 15.7889 47.4539 15.7889 46.7753C15.7889 46.0181 15.3616 45.5783 14.6484 45.594C14.1991 45.6034 13.9761 45.6097 13.5268 45.6191C13.5268 47.4633 13.5237 48.387 13.5237 50.2343Z" fill="url(#paint0_linear_537_6061)"/>
<path d="M20.6207 59.2631C20.6238 54.073 20.6301 48.886 20.6332 43.6958C23.1215 43.6864 24.3656 43.6833 26.8539 43.6738C26.8539 44.6038 26.8539 45.0656 26.8507 45.9956C25.4746 46.0176 24.7866 46.0301 23.4105 46.0584C23.4105 47.5853 23.4074 48.3487 23.4074 49.8756C24.7269 49.8159 25.3835 49.7876 26.7031 49.7342C26.7031 50.6359 26.7031 51.0852 26.6999 51.9837C25.3804 52.0528 24.7206 52.0905 23.4042 52.1754C23.4011 53.9253 23.4011 54.7987 23.4011 56.5486C24.8651 56.4135 25.5972 56.3507 27.0644 56.2376C27.0644 57.1707 27.0644 57.6388 27.0612 58.5751C24.485 58.8075 23.1969 58.9458 20.6207 59.2631Z" fill="url(#paint1_linear_537_6061)"/>
<path d="M32.7668 58.2736C31.3027 58.3679 30.2408 58.1417 29.6187 57.5761C28.9841 57.0012 28.6605 55.9676 28.6637 54.5161C28.6637 54.048 28.6637 53.8155 28.6637 53.3505C29.7287 53.2908 30.2597 53.2625 31.3247 53.2154C31.3247 53.8406 31.3247 54.1517 31.3247 54.7737C31.3247 56.0587 32.0913 56.2032 32.5468 56.1781C33.1061 56.1467 33.3857 55.9205 33.5239 55.7382C33.6904 55.5152 33.7721 55.1884 33.7721 54.7392C33.7721 54.2019 33.6998 53.7684 33.5459 53.4134C33.3951 53.0615 33.1972 52.763 32.9584 52.5242C32.7385 52.3043 32.3583 51.9807 31.8022 51.5283C31.2022 51.0288 30.9006 50.7774 30.3005 50.2716C29.1977 49.3668 28.6668 48.3677 28.6668 47.2304C28.6668 46.0052 28.981 45.0595 29.5999 44.4374C30.2125 43.8185 31.0985 43.5232 32.3081 43.52C33.7533 43.5169 34.7932 43.8405 35.4058 44.4688C35.9839 45.0658 36.3012 46.0052 36.3452 47.2681C35.233 47.2838 34.6769 47.2901 33.5648 47.309C33.5585 47.0262 33.5553 46.8848 33.5522 46.6021C33.5522 46.3193 33.4517 46.0837 33.2537 45.9046C33.1123 45.7789 32.8547 45.6281 32.4306 45.6313C32.0473 45.6344 31.7426 45.7412 31.5321 45.9486C31.331 46.1434 31.2273 46.401 31.2273 46.7152C31.2273 47.309 31.5949 47.9028 32.3269 48.4808C33.1406 49.1406 33.5459 49.4673 34.3565 50.1177C34.812 50.4884 35.1953 50.8434 35.4938 51.1764C35.7797 51.4938 36.0122 51.8771 36.1881 52.3169C36.364 52.7567 36.452 53.294 36.452 53.916C36.452 55.311 36.1567 56.3854 35.5755 57.1112C35.0162 57.8118 34.0989 58.1888 32.7668 58.2736Z" fill="url(#paint2_linear_537_6061)"/>
<path d="M39.8952 57.8058C39.8983 53.8158 39.8983 49.8258 39.9015 45.8358C39.072 45.8389 38.6573 45.8421 37.8248 45.8484C37.8248 44.9687 37.8248 44.532 37.8248 43.6523C40.5738 43.6491 41.9467 43.6491 44.6957 43.646C44.6957 44.5163 44.6957 44.9498 44.6957 45.8201C43.8663 45.8201 43.4516 45.8201 42.619 45.8232C42.619 49.7975 42.6159 53.7718 42.6159 57.7461C41.5289 57.7618 40.9853 57.7744 39.8952 57.8058Z" fill="url(#paint3_linear_537_6061)"/>
<path d="M46.4522 57.721C46.4522 53.0303 46.4522 48.3366 46.4522 43.646C48.9405 43.646 50.1846 43.646 52.6697 43.6491C52.6697 44.5383 52.6697 44.9844 52.6697 45.8735C51.2779 45.8641 50.5836 45.8609 49.1918 45.8578C49.1918 47.0642 49.1918 47.6643 49.1918 48.8707C50.5113 48.8801 51.1711 48.8864 52.4875 48.9021C52.4875 49.7787 52.4875 50.2154 52.4875 51.0919C51.1679 51.0699 50.5082 51.0605 49.1918 51.0479C49.1918 53.7278 49.1918 55.0693 49.1949 57.7492C48.0985 57.7304 47.5518 57.7241 46.4522 57.721Z" fill="url(#paint4_linear_537_6061)"/>
<path d="M58.3625 58.2487C57.0587 58.167 56.1036 57.7963 55.4438 57.0988C54.7746 56.3982 54.4353 55.4148 54.4353 54.1707C54.4322 51.3306 54.4322 49.9105 54.4322 47.0673C54.4322 45.8766 54.7652 44.978 55.4218 44.3937C56.0753 43.8124 57.0618 43.514 58.3531 43.5171C59.6475 43.5203 60.634 43.8219 61.2874 44.4251C61.9441 45.0314 62.2802 45.9677 62.2802 47.1992C62.2834 50.1336 62.2834 51.6008 62.2865 54.5352C62.2865 55.8327 61.9504 56.8129 61.2843 57.4475C60.6214 58.0727 59.6663 58.3272 58.3625 58.2487ZM58.3719 45.6252C57.9007 45.6189 57.1058 45.8043 57.109 47.0861C57.1121 50.0236 57.1121 51.4908 57.1152 54.4283C57.1152 54.9153 57.1875 55.286 57.3383 55.5625C57.5237 55.9081 57.8881 56.1155 58.3625 56.1406C58.8338 56.1657 59.1888 55.9866 59.3553 55.6285C59.4841 55.3583 59.5469 54.9939 59.5438 54.5226C59.5406 51.5505 59.5406 50.0645 59.5375 47.0893C59.5375 46.7091 59.4778 46.4012 59.3521 46.1467C59.2579 45.9551 59.0034 45.6315 58.3719 45.6252Z" fill="url(#paint5_linear_537_6061)"/>
<path d="M68.2524 59.1C66.9485 58.9555 65.9935 58.5188 65.3337 57.7616C64.6645 56.9982 64.3252 55.9614 64.3252 54.6608C64.3221 51.6918 64.3221 50.2089 64.3189 47.24C64.3189 45.9959 64.6519 45.0596 65.3054 44.4501C65.9589 43.8438 66.9454 43.5296 68.2366 43.5327C69.531 43.5359 70.5175 43.8563 71.171 44.5004C71.8276 45.1507 72.1638 46.1529 72.1638 47.4662C72.167 50.5985 72.167 52.1662 72.1701 55.3017C72.1701 56.6872 71.8339 57.7239 71.1679 58.3711C70.5113 59.0183 69.5562 59.2445 68.2524 59.1ZM68.2618 45.7634C67.7905 45.7539 66.9957 45.9424 66.9988 47.2934C67.0019 50.3849 67.002 51.9306 67.0051 55.022C67.0051 55.5342 67.0774 55.9269 67.2282 56.2253C67.4135 56.5961 67.778 56.8285 68.2524 56.8725C68.7236 56.9165 69.0755 56.7406 69.2451 56.3699C69.374 56.0871 69.4368 55.7038 69.4336 55.2043C69.4305 52.0531 69.4305 50.476 69.4274 47.3248C69.4274 46.9227 69.3677 46.5959 69.242 46.3257C69.1446 46.1215 68.8933 45.7759 68.2618 45.7634Z" fill="url(#paint6_linear_537_6061)"/>
<path d="M75.8616 59.9292C75.8584 55.358 75.8553 50.79 75.8553 46.2187C75.0259 46.1967 74.6112 46.1873 73.7786 46.1653C73.7786 45.182 73.7786 44.6919 73.7755 43.7085C76.5245 43.7211 77.8974 43.7273 80.6464 43.7431C80.6464 44.7893 80.6464 45.3139 80.6464 46.3601C79.817 46.335 79.4023 46.3224 78.5729 46.2973C78.5729 50.9816 78.576 55.6659 78.576 60.3502C77.4921 60.1712 76.9486 60.0895 75.8616 59.9292Z" fill="url(#paint7_linear_537_6061)"/>
<defs>
<linearGradient id="paint0_linear_537_6061" x1="14.7871" y1="45.1186" x2="14.7871" y2="58.2871" gradientUnits="userSpaceOnUse">
<stop stop-color="#B7B7B7"/>
<stop offset="0.5025" stop-color="#B7B7B7"/>
<stop offset="0.5175" stop-color="white"/>
<stop offset="1" stop-color="white"/>
</linearGradient>
<linearGradient id="paint1_linear_537_6061" x1="23.8436" y1="44.9592" x2="23.8436" y2="57.0549" gradientUnits="userSpaceOnUse">
<stop stop-color="#B7B7B7"/>
<stop offset="0.5025" stop-color="#B7B7B7"/>
<stop offset="0.5175" stop-color="white"/>
<stop offset="1" stop-color="white"/>
</linearGradient>
<linearGradient id="paint2_linear_537_6061" x1="32.5564" y1="44.8551" x2="32.5564" y2="56.1007" gradientUnits="userSpaceOnUse">
<stop stop-color="#B7B7B7"/>
<stop offset="0.5025" stop-color="#B7B7B7"/>
<stop offset="0.5175" stop-color="white"/>
<stop offset="1" stop-color="white"/>
</linearGradient>
<linearGradient id="paint3_linear_537_6061" x1="41.2614" y1="44.8138" x2="41.2614" y2="55.8001" gradientUnits="userSpaceOnUse">
<stop stop-color="#B7B7B7"/>
<stop offset="0.5025" stop-color="#B7B7B7"/>
<stop offset="0.5175" stop-color="white"/>
<stop offset="1" stop-color="white"/>
</linearGradient>
<linearGradient id="paint4_linear_537_6061" x1="49.5625" y1="44.8092" x2="49.5625" y2="55.7526" gradientUnits="userSpaceOnUse">
<stop stop-color="#B7B7B7"/>
<stop offset="0.5025" stop-color="#B7B7B7"/>
<stop offset="0.5175" stop-color="white"/>
<stop offset="1" stop-color="white"/>
</linearGradient>
<linearGradient id="paint5_linear_537_6061" x1="58.357" y1="44.8513" x2="58.357" y2="56.0737" gradientUnits="userSpaceOnUse">
<stop stop-color="#B7B7B7"/>
<stop offset="0.5025" stop-color="#B7B7B7"/>
<stop offset="0.5175" stop-color="white"/>
<stop offset="1" stop-color="white"/>
</linearGradient>
<linearGradient id="paint6_linear_537_6061" x1="68.2455" y1="44.9482" x2="68.2455" y2="56.8267" gradientUnits="userSpaceOnUse">
<stop stop-color="#B7B7B7"/>
<stop offset="0.5025" stop-color="#B7B7B7"/>
<stop offset="0.5175" stop-color="white"/>
<stop offset="1" stop-color="white"/>
</linearGradient>
<linearGradient id="paint7_linear_537_6061" x1="77.2127" y1="45.0794" x2="77.2127" y2="57.9908" gradientUnits="userSpaceOnUse">
<stop stop-color="#B7B7B7"/>
<stop offset="0.5025" stop-color="#B7B7B7"/>
<stop offset="0.5175" stop-color="white"/>
<stop offset="1" stop-color="white"/>
</linearGradient>
</defs>
</svg>
